<?xml version="1.0" standalone="no"?>
<!DOCTYPE svg PUBLIC "-//W3C//DTD SVG 20010904//EN"
 "http://www.w3.org/TR/2001/REC-SVG-20010904/DTD/svg10.dtd">
<svg version="1.0" xmlns="http://www.w3.org/2000/svg"
 width="409.000000pt" height="409.000000pt" viewBox="0 0 409.000000 409.000000"
 preserveAspectRatio="xMidYMid meet">
<metadata>
Created by potrace 1.11, written by Peter Selinger 2001-2013
</metadata>
<g transform="translate(0.000000,409.000000) scale(0.100000,-0.100000)"
fill="#000000" stroke="none">
<path d="M1949 3987 c-109 -115 -126 -134 -188 -207 -25 -29 -50 -58 -56 -64
-21 -22 -154 -193 -222 -286 -404 -550 -709 -1198 -881 -1875 -39 -152 -84
-362 -97 -450 -3 -23 -7 -51 -10 -64 -2 -13 -7 -49 -11 -80 -3 -31 -8 -58 -9
-61 -2 -3 -6 -39 -10 -79 -4 -41 -8 -82 -10 -90 -3 -18 -15 -181 -20 -279 l-3
-63 57 -28 c216 -110 634 -250 851 -286 19 -3 42 -8 50 -10 8 -2 35 -7 60 -10
24 -4 47 -8 50 -10 3 -1 36 -6 73 -10 37 -3 78 -8 90 -11 109 -22 629 -22 777
1 14 2 63 9 110 15 47 6 103 15 125 20 22 5 56 11 75 15 205 33 562 150 793
259 l114 53 -3 109 c-7 250 -28 499 -59 694 -11 67 -16 96 -20 110 -2 8 -6 31
-9 50 -9 55 -16 92 -26 130 -5 19 -11 46 -13 60 -8 43 -58 232 -83 311 -14 42
-26 85 -28 95 -2 11 -14 46 -26 79 -72 196 -92 248 -105 278 -8 17 -28 66 -46
107 -87 208 -252 513 -388 720 -42 63 -78 120 -80 125 -2 6 -7 12 -10 15 -4 3
-29 36 -56 74 -69 99 -233 303 -324 405 -82 91 -296 310 -321 328 -12 9 -33
-8 -111 -90z"/>
</g>
</svg>
